<?xml version="1.0" encoding="UTF-8"?>
<svg id="Capa_2" data-name="Capa 2" xmlns="http://www.w3.org/2000/svg" viewBox="0 0 153.67 59.7">
  <defs>
    <style>
      .cls-1 {
        fill: #eeece2;
      }
    </style>
  </defs>
  <g id="Capa_1-2" data-name="Capa 1">
    <g>
      <g>
        <path class="cls-1" d="m6.14,7.37h5.25l6.13,37.08h-4.11l-1.05-7.08h-6.72l-.97,7.08H.51L6.14,7.37Zm-.02,26.46h5.69l-2.93-19.6h-.06l-2.7,19.6Z"/>
        <polygon class="cls-1" points="36.94 7.37 42.4 7.37 42.4 44.46 38.52 44.46 38.52 29.58 38.88 15.72 33.85 44.39 29.91 44.39 24.66 15.72 25.02 29.58 25.02 44.46 21.16 44.46 21.16 7.37 26.6 7.37 31.91 37.86 36.94 7.37"/>
        <path class="cls-1" d="m51.67,7.37h5.25l6.13,37.08h-4.11l-1.05-7.08h-6.72l-.97,7.08h-4.15l5.63-37.08Zm-.02,26.46h5.69l-2.93-19.6h-.06l-2.7,19.6Z"/>
        <polygon class="cls-1" points="63.69 7.37 75.93 7.37 75.93 11 72.11 11 72.11 44.46 67.77 44.46 67.77 11 63.69 11 63.69 7.37"/>
        <rect class="cls-1" x="79.11" y="7.37" width="4.36" height="37.08"/>
        <polygon class="cls-1" points="86.66 7.37 98.9 7.37 98.9 11 95.08 11 95.08 44.46 90.75 44.46 90.75 11 86.66 11 86.66 7.37"/>
        <polygon class="cls-1" points="101.75 7.37 112.83 7.37 112.83 11 106.11 11 106.11 23.68 112.47 23.68 112.47 27.31 106.11 27.31 106.11 40.83 112.91 40.83 112.91 44.46 101.75 44.46 101.75 7.37"/>
        <path class="cls-1" d="m128.65,7.37h3.86v37.08h-3.2l-8.32-25.45.25,9.36v16.1h-4.02V7.37h3.29l8.6,25.24-.44-10.72V7.37Zm-10.39-4.04c.38-1.31.88-2.19,1.5-2.64.62-.46,1.31-.69,2.08-.69s1.84.26,3.22.78c1.38.52,2.22.78,2.52.78h.09c.24-.04.45-.16.62-.35.18-.19.36-.57.56-1.15l2.59.59-.19.78c-.35,1.33-.77,2.23-1.26,2.69-.49.46-1.11.69-1.86.69s-1.78-.29-3.11-.86c-1.33-.58-2.19-.86-2.59-.86s-.71.02-.93.07c-.22.05-.52.45-.89,1.21l-2.34-1.03Z"/>
        <path class="cls-1" d="m141.78,7.37h5.25l6.13,37.08h-4.11l-1.05-7.08h-6.72l-.97,7.08h-4.15l5.63-37.08Zm-.02,26.46h5.69l-2.93-19.6h-.07l-2.7,19.6Z"/>
      </g>
      <g>
        <path class="cls-1" d="m4.8,53.98c-.08-.3-.2-.6-.3-.75-.14-.23-.23-.29-.72-.29h-.82v4.26c0,.7.07.79.9.84v.26H1.23v-.26c.81-.05.88-.14.88-.84v-4.26h-.75c-.49,0-.63.06-.78.31-.11.17-.19.4-.3.74h-.28c.05-.56.11-1.13.13-1.61h.21c.13.21.23.21.48.21h3.49c.24,0,.32-.04.46-.21h.22c0,.41.04,1.06.08,1.59l-.28.03Z"/>
        <path class="cls-1" d="m12.16,56.87c-.05.23-.29,1.16-.38,1.42h-4.33v-.26c.82-.06.88-.14.88-.86v-3.46c0-.78-.1-.82-.75-.88v-.26h2.72c.84,0,1.18,0,1.29-.02,0,.21.05.88.08,1.36l-.28.04c-.08-.3-.18-.52-.28-.7-.14-.27-.33-.33-.84-.33h-.79c-.28,0-.3.02-.3.29v1.93h.96c.63,0,.68-.13.79-.74h.29v1.84h-.29c-.12-.64-.19-.73-.8-.73h-.95v1.71c0,.61.16.69.62.7h.78c.53,0,.62-.08.82-.31.18-.2.36-.55.49-.82l.28.07Z"/>
        <path class="cls-1" d="m17.54,52.45c1.53,0,2.87,1.16,2.87,2.91,0,1.89-1.32,3.07-2.95,3.07s-2.91-1.25-2.91-2.95c0-1.56,1.11-3.03,2.99-3.03m-.17.34c-.97,0-1.83.84-1.83,2.47s.84,2.83,2.08,2.83c.96,0,1.8-.8,1.8-2.48,0-1.83-.92-2.82-2.05-2.82m.6,5.05c.96.73,1.93,1.36,2.71,1.65l-.06.22c-.42,0-.95-.03-1.23-.11-.64-.18-1.65-.93-2.37-1.44l.95-.32Z"/>
        <path class="cls-1" d="m29.02,52.83c-.56.04-.75.18-.77.57-.01.21-.03.57-.03,1.35v.99c0,.87-.11,1.57-.62,2.11-.41.43-1.02.57-1.63.57-.52,0-1.08-.11-1.47-.41-.53-.4-.78-1-.78-2.02v-2.24c0-.8-.07-.85-.77-.91v-.26h2.39v.26c-.7.05-.77.12-.77.91v2.23c0,1.23.59,1.93,1.62,1.93,1.21,0,1.62-.77,1.62-2.21v-.93c0-.77-.03-1.1-.04-1.35-.03-.4-.24-.54-.88-.57v-.26h2.13v.26Z"/>
        <path class="cls-1" d="m31.27,58.29v-.26c.71-.08.78-.11.78-.86v-3.47c0-.75-.07-.8-.78-.87v-.26h2.42v.26c-.72.08-.79.12-.79.87v3.47c0,.75.07.78.79.86v.26h-2.42Z"/>
        <path class="cls-1" d="m40.78,56.81c-.06.29-.32,1.21-.4,1.48h-4.14v-.26c.8-.07.87-.12.87-.87v-3.47c0-.75-.09-.8-.78-.86v-.26h2.43v.26c-.7.07-.8.11-.8.86v3.55c0,.53.06.67.56.68,0,0,.6,0,.65,0,.46,0,.59-.06.79-.29.21-.22.4-.58.54-.91l.28.08Z"/>
        <path class="cls-1" d="m46.57,58.29v-.26c.57-.07.63-.16.5-.5-.11-.33-.28-.76-.45-1.28h-1.87c-.13.37-.26.72-.38,1.06-.19.57-.05.64.66.72v.26h-2.06v-.26c.55-.07.7-.14,1-.92l1.82-4.61.31-.06c.56,1.51,1.16,3.16,1.72,4.67.29.78.37.84.98.91v.26h-2.24Zm-.86-4.6c-.28.73-.57,1.5-.82,2.18h1.6l-.78-2.18Z"/>
        <path class="cls-1" d="m54.97,58.29v-.26c.96-.06,1.02-.11,1.02-.77v-3.35c0-.45-.08-.47-.46-.51l-.4-.04v-.23c.6-.09,1.21-.24,1.67-.43v4.56c0,.67.05.71,1.02.77v.26h-2.85Z"/>
        <path class="cls-1" d="m62.41,52.7c1.35,0,1.85,1.5,1.85,2.84s-.49,2.85-1.85,2.85-1.87-1.47-1.87-2.84c0-1.29.51-2.85,1.87-2.85m0,.32c-.78,0-.97,1.29-.97,2.51s.24,2.54.98,2.54.95-1.3.95-2.53-.21-2.52-.96-2.52"/>
        <path class="cls-1" d="m68.47,52.7c1.35,0,1.85,1.5,1.85,2.84s-.49,2.85-1.85,2.85-1.87-1.47-1.87-2.84c0-1.29.51-2.85,1.87-2.85m0,.32c-.78,0-.97,1.29-.97,2.51s.24,2.54.98,2.54.95-1.3.95-2.53-.21-2.52-.96-2.52"/>
        <path class="cls-1" d="m74.13,52.7c.93,0,1.33.9,1.33,1.62s-.39,1.62-1.33,1.62-1.33-.87-1.33-1.61.4-1.63,1.33-1.63m.01.29c-.51,0-.62.82-.62,1.33s.11,1.34.62,1.34.6-.85.6-1.34-.08-1.33-.6-1.33m.16,5.49l-.3-.22,3.59-5.59.31.21-3.6,5.59Zm3.52-3.32c.93,0,1.34.88,1.34,1.62s-.4,1.62-1.34,1.62-1.33-.87-1.33-1.62c0-.71.4-1.62,1.33-1.62m.01.29c-.5,0-.62.8-.62,1.33s.12,1.33.62,1.33.6-.84.6-1.33-.08-1.33-.6-1.33"/>
        <path class="cls-1" d="m88.45,58.29v-.26c.57-.07.63-.16.5-.5-.11-.33-.28-.76-.45-1.28h-1.87c-.13.37-.26.72-.38,1.06-.19.57-.05.64.66.72v.26h-2.06v-.26c.55-.07.7-.14,1-.92l1.82-4.61.31-.06c.56,1.51,1.16,3.16,1.72,4.67.29.78.37.84.98.91v.26h-2.24Zm-.86-4.6c-.28.73-.57,1.5-.82,2.18h1.6l-.78-2.18Z"/>
        <path class="cls-1" d="m98.52,55.89c-.54.07-.58.12-.58.66v.73c0,.31,0,.6.05.84-.53.12-1.29.31-2.02.31-2.01,0-3.22-1.24-3.22-3.01,0-1.88,1.53-2.97,3.31-2.97.86,0,1.55.18,1.82.22.02.34.07.9.13,1.44l-.28.05c-.21-.75-.48-1.08-1.03-1.26-.2-.07-.56-.11-.81-.11-1.3,0-2.15.92-2.15,2.52,0,1.43.69,2.79,2.35,2.79.28,0,.54-.06.71-.14.18-.1.28-.21.28-.55v-.73c0-.64-.08-.71-.91-.77v-.27h2.33v.27Z"/>
        <path class="cls-1" d="m104.24,58.29v-.26c.57-.07.63-.16.5-.5-.11-.33-.28-.76-.45-1.28h-1.87c-.13.37-.26.72-.38,1.06-.19.57-.05.64.66.72v.26h-2.06v-.26c.55-.07.7-.14,1-.92l1.82-4.61.31-.06c.56,1.51,1.16,3.16,1.72,4.67.29.78.37.84.98.91v.26h-2.24Zm-.86-4.6c-.28.73-.57,1.5-.82,2.18h1.6l-.78-2.18Z"/>
        <path class="cls-1" d="m113.39,52.83c-.59.08-.74.16-1.06.96-.24.6-1.4,3.41-1.87,4.6h-.33c-.47-1.29-1.3-3.52-1.78-4.75-.25-.65-.39-.75-.94-.8v-.26h2.32v.26c-.65.07-.68.17-.55.5.23.66.88,2.42,1.38,3.76.48-1.16,1.04-2.55,1.42-3.56.2-.53.1-.62-.62-.7v-.26h2.04v.26Z"/>
        <path class="cls-1" d="m120.13,56.87c-.05.23-.29,1.16-.38,1.42h-4.33v-.26c.82-.06.88-.14.88-.86v-3.46c0-.78-.1-.82-.75-.88v-.26h2.72c.84,0,1.18,0,1.29-.02,0,.21.05.88.08,1.36l-.28.04c-.08-.3-.18-.52-.28-.7-.14-.27-.33-.33-.84-.33h-.79c-.28,0-.3.02-.3.29v1.93h.96c.63,0,.68-.13.79-.74h.29v1.84h-.29c-.12-.64-.19-.73-.8-.73h-.95v1.71c0,.61.16.69.62.7h.78c.53,0,.62-.08.82-.31.18-.2.36-.55.49-.82l.28.07Z"/>
        <path class="cls-1" d="m129.21,58.29v-.26c.57-.07.63-.16.5-.5-.11-.33-.28-.76-.45-1.28h-1.87c-.13.37-.26.72-.38,1.06-.19.57-.05.64.66.72v.26h-2.06v-.26c.55-.07.7-.14,1-.92l1.82-4.61.31-.06c.56,1.51,1.16,3.16,1.72,4.67.29.78.37.84.98.91v.26h-2.24Zm-.86-4.6c-.28.73-.57,1.5-.82,2.18h1.6l-.78-2.18Z"/>
        <path class="cls-1" d="m138.72,56.76c-.06.31-.28,1.16-.37,1.53h-4.6l-.08-.15c1.2-1.68,2.41-3.44,3.63-5.21h-1.67c-.76,0-.89.06-1.08.34-.09.12-.22.41-.34.74h-.28c.05-.48.15-1.26.17-1.65h.24c.1.21.21.21.47.21h3.56l.07.14c-1.2,1.71-2.38,3.42-3.57,5.19.28.02.79.03,1.38.03,1.13,0,1.38-.04,1.63-.31.19-.19.39-.54.56-.92l.27.06Z"/>
        <path class="cls-1" d="m146.96,52.83c-.56.04-.75.18-.77.57-.01.21-.03.57-.03,1.35v.99c0,.87-.11,1.57-.62,2.11-.41.43-1.02.57-1.63.57-.52,0-1.08-.11-1.47-.41-.53-.4-.78-1-.78-2.02v-2.24c0-.8-.07-.85-.77-.91v-.26h2.39v.26c-.7.05-.77.12-.77.91v2.23c0,1.23.59,1.93,1.62,1.93,1.21,0,1.62-.77,1.62-2.21v-.93c0-.77-.03-1.1-.04-1.35-.03-.4-.24-.54-.88-.57v-.26h2.13v.26Z"/>
        <path class="cls-1" d="m153.67,56.81c-.06.29-.32,1.21-.4,1.48h-4.14v-.26c.8-.07.87-.12.87-.87v-3.47c0-.75-.09-.8-.78-.86v-.26h2.43v.26c-.7.07-.8.11-.8.86v3.55c0,.53.06.67.56.68.01,0,.6,0,.65,0,.46,0,.59-.06.79-.29.21-.22.4-.58.54-.91l.28.08Z"/>
      </g>
    </g>
  </g>
</svg>