<?xml version="1.0" encoding="UTF-8"?>
<svg id="Capa_2" data-name="Capa 2" xmlns="http://www.w3.org/2000/svg" viewBox="0 0 316.87 66.87">
  <defs>
    <style>
      .cls-1 {
        fill: #2e3b46;
      }
    </style>
  </defs>
  <g id="Capa_1-2" data-name="Capa 1">
    <g>
      <path class="cls-1" d="m177.21,22.71v-5.66h20.86v4.42c-1.72,1.7-3.47,4.13-5.25,7.3-1.78,3.16-3.13,6.54-4.07,10.1-.93,3.57-1.4,6.76-1.38,9.57h-5.88c.11-4.4,1.01-8.89,2.73-13.46,1.71-4.58,4-8.66,6.87-12.27h-13.87Zm-24.73,0v-5.66h20.86v4.42c-1.72,1.7-3.47,4.13-5.26,7.3-1.78,3.16-3.13,6.54-4.07,10.1-.93,3.57-1.39,6.76-1.38,9.57h-5.88c.1-4.4,1.01-8.89,2.73-13.46,1.71-4.58,4-8.66,6.87-12.27h-13.87Zm-12.77,13.96v-10.88l-7.32,10.88h7.32Zm0,11.77v-6.4h-13.03v-5.34l13.81-20.22h5.12v20.2h3.95v5.37h-3.95v6.4h-5.91Zm-21.09,0h-6.1v-23c-2.23,2.09-4.85,3.63-7.88,4.62v-5.54c1.58-.52,3.32-1.5,5.19-2.96,1.87-1.46,3.15-3.16,3.84-5.1h4.95v31.96Z"/>
      <path class="cls-1" d="m305.54,14.5v8.89h-.71c-.42-2.06-.89-3.53-1.4-4.42-.51-.9-1.22-1.61-2.11-2.14-.5-.3-1.37-.44-2.61-.44h-1.99v25.33c0,1.68.08,2.73.22,3.15.16.42.45.78.89,1.1.44.32,1.04.48,1.8.48h.89v.89h-13.98v-.89h.89c.77,0,1.4-.17,1.87-.51.34-.22.61-.61.81-1.17.15-.38.22-1.4.22-3.05v-25.33h-1.94c-1.8,0-3.11.46-3.92,1.41-1.14,1.31-1.86,3.18-2.16,5.6h-.75v-8.89h23.99Zm-42.44,1.77v14.38h1.12c1.82,0,3.19-.2,4.09-.61.91-.41,1.62-1.16,2.14-2.23.52-1.08.78-2.47.78-4.2,0-2.51-.48-4.35-1.43-5.55-.95-1.2-2.48-1.79-4.6-1.79h-2.1Zm0,16.1v9.21c0,1.78.09,2.89.26,3.35.18.46.49.83.94,1.11.45.27,1.28.41,2.51.41v.89h-13.67v-.89c1.24,0,2.07-.14,2.52-.43.44-.28.75-.65.93-1.1.17-.46.26-1.56.26-3.34v-21.31c0-1.78-.09-2.9-.26-3.36-.18-.46-.49-.83-.94-1.1-.44-.28-1.28-.42-2.5-.42v-.9h12.41c3.23,0,5.59.28,7.09.83,1.49.55,2.72,1.56,3.66,3.04.94,1.47,1.42,3.21,1.42,5.19,0,2.42-.71,4.42-2.13,6.01-.91,1-2.17,1.75-3.8,2.25l6.42,11.12c.84,1.44,1.44,2.33,1.79,2.69.54.5,1.16.77,1.88.83v.89h-8.41l-8.6-14.97h-1.76Zm-12.92-18.62v11.38h-.77c-.58-2.97-1.65-5.24-3.23-6.83-1.57-1.58-3.36-2.37-5.36-2.37-1.67,0-3.19.58-4.59,1.77-1.39,1.18-2.41,2.72-3.05,4.63-.83,2.44-1.24,5.15-1.24,8.14s.3,5.61.91,8.02c.61,2.41,1.55,4.24,2.84,5.47,1.29,1.24,2.95,1.85,5,1.85,1.68,0,3.22-.45,4.62-1.36,1.4-.9,2.87-2.46,4.42-4.67v2.83c-1.5,1.92-3.06,3.32-4.68,4.18-1.62.87-3.51,1.3-5.69,1.3-2.84,0-5.38-.7-7.59-2.11-2.21-1.41-3.92-3.42-5.12-6.05-1.2-2.64-1.8-5.44-1.8-8.41,0-3.13.67-6.1,2-8.91,1.33-2.81,3.12-4.99,5.39-6.54,2.27-1.55,4.67-2.32,7.22-2.32,1.88,0,3.86.5,5.95,1.5,1.21.58,1.98.88,2.31.88.42,0,.78-.19,1.09-.57.31-.38.51-.98.6-1.8h.77Z"/>
      <polygon class="cls-1" points="57.97 55.95 51.55 55.95 51.55 11 51.61 11 51.55 10.79 57.97 11 65.82 37.72 73.97 11.03 74.04 11.03 74.04 11 76.15 11 80.01 10.95 79.99 11 80.47 11 80.47 55.95 74.04 55.95 74.04 31.37 69.49 46.94 68.53 46.94 68.53 46.94 62.17 46.94 57.97 32.64 57.97 55.95"/>
      <path class="cls-1" d="m38.88,46.82h-.06v-26.05h.06c0-1.96-1.58-3.55-3.53-3.55s-3.53,1.59-3.53,3.55h-.03v26.05h.03c0,1.96,1.58,3.55,3.53,3.55s3.53-1.59,3.53-3.55m-13.21-.04v-26.01c0-5.38,4.34-9.74,9.68-9.74s9.68,4.36,9.68,9.74h.05v26.05h-.05c0,5.38-4.33,9.74-9.68,9.74s-9.68-4.36-9.68-9.74v-.04Z"/>
      <g>
        <polygon class="cls-1" points="6.43 56.01 0 56.01 0 11.06 6.77 11.01 12.85 32.89 12.85 11.06 19.28 11.06 19.28 56.01 12.51 56.06 6.43 34.17 6.43 56.01"/>
        <rect class="cls-1" y="62.06" width="80.47" height="4.82"/>
        <rect class="cls-1" width="80.47" height="4.81"/>
      </g>
      <path class="cls-1" d="m216.68,56.37V5.49h100.2v50.88h-100.2Zm3.97-46.92v42.95h92.26V9.45h-92.26Z"/>
    </g>
  </g>
</svg>